<?xml version="1.0" encoding="iso-8859-1"?>
<!-- Uploaded to: SVG Repo, www.svgrepo.com, Generator: SVG Repo Mixer Tools -->
<svg version="1.1" id="Layer_1" xmlns="http://www.w3.org/2000/svg" xmlns:xlink="http://www.w3.org/1999/xlink" 
	 viewBox="0 0 512 512" xml:space="preserve">
<rect x="84.001" y="8" style="fill:#E2804F;" width="343.997" height="496.002"/>
<g>
	<rect x="108" y="184.003" style="fill:#F2BF7E;" width="55.998" height="55.998"/>
	<rect x="187.997" y="184.003" style="fill:#F2BF7E;" width="55.998" height="55.998"/>
	<rect x="268.005" y="184.003" style="fill:#F2BF7E;" width="55.998" height="55.998"/>
</g>
<rect x="348.002" y="184.003" style="fill:#D4E4AC;" width="55.998" height="55.998"/>
<g>
	<rect x="108" y="264" style="fill:#F2BF7E;" width="55.998" height="55.998"/>
	<rect x="187.997" y="264" style="fill:#F2BF7E;" width="55.998" height="55.998"/>
	<rect x="268.005" y="264" style="fill:#F2BF7E;" width="55.998" height="55.998"/>
</g>
<rect x="348.002" y="264" style="fill:#D4E4AC;" width="55.998" height="55.998"/>
<g>
	<rect x="108" y="343.997" style="fill:#F2BF7E;" width="55.998" height="55.998"/>
	<rect x="187.997" y="343.997" style="fill:#F2BF7E;" width="55.998" height="55.998"/>
	<rect x="268.005" y="343.997" style="fill:#F2BF7E;" width="55.998" height="55.998"/>
</g>
<g>
	<rect x="348.002" y="343.997" style="fill:#D4E4AC;" width="55.998" height="55.998"/>
	<rect x="108" y="424.004" style="fill:#D4E4AC;" width="55.998" height="55.998"/>
</g>
<rect x="187.997" y="424.004" style="fill:#F2BF7E;" width="55.998" height="55.998"/>
<g>
	<rect x="268.005" y="424.004" style="fill:#D4E4AC;" width="55.998" height="55.998"/>
	<rect x="348.002" y="424.004" style="fill:#D4E4AC;" width="55.998" height="55.998"/>
</g>
<rect x="84.001" y="8" style="fill:#FFFFFF;" width="343.997" height="152.005"/>
<path d="M76,0v512H436V0H76z M420,16v136.475H92V16H420z M92,496.001v-327.84h328v327.84H92z"/>
<rect x="259.66" y="32.218" width="16.731" height="15.686"/>
<rect x="283.711" y="32.218" style="fill:#D4E4AC;" width="24.051" height="15.686"/>
<rect x="316.128" y="32.218" style="fill:#E2804F;" width="24.051" height="15.686"/>
<rect x="347.5" y="32.218" width="40.783" height="15.686"/>
<rect x="123.718" y="71.955" width="15.686" height="63.788"/>
<rect x="236.654" y="71.955" width="15.686" height="63.788"/>
<polygon style="fill:#F2BF7E;" points="211.557,104.372 195.872,104.372 195.872,87.641 180.186,87.641 180.186,104.372 
	164.5,104.372 164.5,120.058 180.186,120.058 180.186,135.744 195.872,135.744 195.872,120.058 211.557,120.058 "/>
<path d="M171.999,248h-72v-72h72L171.999,248L171.999,248z M115.999,232h39.999v-39.999h-39.999
	C115.999,192.001,115.999,232,115.999,232z"/>
<path d="M251.999,248h-72v-72h72V248z M196,232H236v-39.999H196L196,232L196,232z"/>
<path d="M331.999,248h-72v-72h72V248z M276,232h40v-39.999h-40V232z"/>
<path d="M412,248h-72v-72h72V248z M355.999,232h39.999v-39.999h-39.999V232z"/>
<path d="M171.999,328h-72v-71.999h72L171.999,328L171.999,328z M115.999,312h39.999V272h-39.999
	C115.999,272,115.999,312,115.999,312z"/>
<path d="M251.999,328h-72v-71.999h72V328z M196,312H236V272H196L196,312L196,312z"/>
<path d="M331.999,328h-72v-71.999h72V328z M276,312h40V272h-40V312z"/>
<path d="M412,328h-72v-71.999h72V328z M355.999,312h39.999V272h-39.999V312z"/>
<path d="M171.999,408h-72v-72h72L171.999,408L171.999,408z M115.999,392h39.999v-40h-39.999
	C115.999,352.001,115.999,392,115.999,392z"/>
<path d="M251.999,408h-72v-72h72V408z M196,392H236v-40H196L196,392L196,392z"/>
<path d="M331.999,408h-72v-72h72V408z M276,392h40v-40h-40V392z"/>
<path d="M412,408h-72v-72h72V408z M355.999,392h39.999v-40h-39.999V392z"/>
<path d="M171.999,488h-72v-72h72L171.999,488L171.999,488z M115.999,472.001h39.999v-40h-39.999
	C115.999,432.001,115.999,472.001,115.999,472.001z"/>
<path d="M251.999,488h-72v-72h72V488z M196,472.001H236v-40H196L196,472.001L196,472.001z"/>
<path d="M331.999,488h-72v-72h72V488z M276,472.001h40v-40h-40V472.001z"/>
<path d="M412,488h-72v-72h72V488z M355.999,472.001h39.999v-40h-39.999V472.001z"/>
</svg>