<svg id="Layer_1" data-name="Layer 1" xmlns="http://www.w3.org/2000/svg" xmlns:xlink="http://www.w3.org/1999/xlink" viewBox="0 0 148.87 34.11"><defs><style>.cls-1{fill:url(#linear-gradient);}.cls-2{fill:url(#linear-gradient-2);}.cls-3{fill:url(#linear-gradient-3);}.cls-4{fill:url(#linear-gradient-4);}.cls-5{fill:url(#linear-gradient-5);}.cls-6{fill:url(#linear-gradient-6);}.cls-7{fill:url(#linear-gradient-7);}.cls-8{fill:url(#linear-gradient-8);}.cls-9{fill:url(#linear-gradient-9);}.cls-10{fill:url(#linear-gradient-10);}.cls-11{fill:url(#linear-gradient-11);}.cls-12{fill:url(#linear-gradient-12);}.cls-13{fill:url(#linear-gradient-13);}.cls-14{fill:url(#linear-gradient-14);}</style><linearGradient id="linear-gradient" x1="-139.77" y1="460.94" x2="-38.61" y2="465.07" gradientTransform="matrix(1.42, 0, 0, -5.41, 200.1, 2514.38)" gradientUnits="userSpaceOnUse"><stop offset="0" stop-color="#270016"/><stop offset="0.17" stop-color="#2a0016"/><stop offset="0.31" stop-color="#340016"/><stop offset="0.44" stop-color="#450017"/><stop offset="0.53" stop-color="#550017"/><stop offset="0.59" stop-color="#5a061b"/><stop offset="0.68" stop-color="#681725"/><stop offset="0.79" stop-color="#7f3436"/><stop offset="0.9" stop-color="#9e5b4e"/><stop offset="1" stop-color="#be8265"/></linearGradient><linearGradient id="linear-gradient-2" x1="1423.81" y1="-578.73" x2="2012.63" y2="-530.05" gradientTransform="matrix(0.24, 0, 0, -0.46, -345.32, -243.41)" xlink:href="#linear-gradient"/><linearGradient id="linear-gradient-3" x1="850.95" y1="-443.86" x2="1261.03" y2="-401.02" gradientTransform="matrix(0.35, 0, 0, -0.52, -295.61, -208.07)" xlink:href="#linear-gradient"/><linearGradient id="linear-gradient-4" x1="1322.8" y1="-1797.82" x2="1882.9" y2="-1697.04" gradientTransform="matrix(0.26, 0, 0, -0.22, -337.49, -373.8)" xlink:href="#linear-gradient"/><linearGradient id="linear-gradient-5" x1="-434.11" y1="522.87" x2="-434.12" y2="523.76" gradientTransform="matrix(15.31, 0, 0, -15.31, 6785.4, 8019.31)" gradientUnits="userSpaceOnUse"><stop offset="0" stop-color="#b37e23"/><stop offset="0.1" stop-color="#c38c1e"/><stop offset="0.25" stop-color="#d69d18"/><stop offset="0.36" stop-color="#dda316"/><stop offset="0.74" stop-color="#ffce0a"/><stop offset="1" stop-color="#ffd604"/></linearGradient><linearGradient id="linear-gradient-6" x1="-442.37" y1="536.37" x2="-434.78" y2="536.68" gradientTransform="matrix(20.24, 0, 0, -24.75, 8945.52, 13290.73)" gradientUnits="userSpaceOnUse"><stop offset="0" stop-color="#543b2d"/><stop offset="0.16" stop-color="#573d2e"/><stop offset="0.29" stop-color="#614233"/><stop offset="0.41" stop-color="#724a3a"/><stop offset="0.51" stop-color="#895643"/><stop offset="0.53" stop-color="#8d5845"/><stop offset="0.62" stop-color="#875441"/><stop offset="0.75" stop-color="#764937"/><stop offset="0.89" stop-color="#593827"/><stop offset="1" stop-color="#402818"/></linearGradient><linearGradient id="linear-gradient-7" x1="-440.28" y1="528.66" x2="-431.59" y2="529.08" gradientTransform="matrix(17.68, 0, 0, -18.16, 7775.22, 9620.93)" xlink:href="#linear-gradient-6"/><linearGradient id="linear-gradient-8" x1="-415.73" y1="536.54" x2="-397.69" y2="536.84" gradientTransform="matrix(8.52, 0, 0, -25.03, 3534.53, 13442.99)" xlink:href="#linear-gradient-6"/><linearGradient id="linear-gradient-9" x1="-442.98" y1="536.94" x2="-434.76" y2="537.24" gradientTransform="matrix(18.7, 0, 0, -25.55, 8276.66, 13734.62)" xlink:href="#linear-gradient-6"/><linearGradient id="linear-gradient-10" x1="-443.95" y1="536.4" x2="-435.62" y2="536.7" gradientTransform="matrix(18.45, 0, 0, -24.94, 8184.33, 13393.75)" xlink:href="#linear-gradient-6"/><linearGradient id="linear-gradient-11" x1="-444.07" y1="528.49" x2="-435.38" y2="528.91" gradientTransform="matrix(17.68, 0, 0, -18.17, 7842.82, 9625.23)" xlink:href="#linear-gradient-6"/><linearGradient id="linear-gradient-12" x1="-446.22" y1="527.74" x2="-438.05" y2="528.17" gradientTransform="matrix(18.8, 0, 0, -17.74, 8380.87, 9383.8)" xlink:href="#linear-gradient-6"/><linearGradient id="linear-gradient-13" x1="-447.25" y1="537" x2="-439.11" y2="537.29" gradientTransform="matrix(18.88, 0, 0, -25.81, 8438.52, 13886.49)" xlink:href="#linear-gradient-6"/><linearGradient id="linear-gradient-14" x1="100.29" y1="30.91" x2="131.88" y2="30.91" gradientUnits="userSpaceOnUse"><stop offset="0" stop-color="#875441"/><stop offset="0.34" stop-color="#764937"/><stop offset="0.66" stop-color="#593827"/><stop offset="1" stop-color="#402818"/></linearGradient></defs><g id="Layer_1-2" data-name="Layer 1"><path id="Path_6012" data-name="Path 6012" class="cls-1" d="M4.81,16.49A15.2,15.2,0,0,0,6.22,21.9,15.43,15.43,0,0,1,4.8,16.49Z" transform="translate(0)"/><path id="Path_6013" data-name="Path 6013" class="cls-2" d="M6.46,22.37l-.24-.46Z" transform="translate(0)"/><path id="Path_6014" data-name="Path 6014" class="cls-3" d="M7,23.18c-.12-.17-.24-.34-.35-.52C6.75,22.84,6.87,23,7,23.18Z" transform="translate(0)"/><path id="Path_6015" data-name="Path 6015" class="cls-4" d="M8.26,24.54,8,24.32Z" transform="translate(0)"/><path id="Path_6016" data-name="Path 6016" class="cls-5" d="M148.87,7.66l-4.75.45a3,3,0,0,0-2.45,2.46l-.46,4.74-.2-2.1-.25-2.65a3,3,0,0,0-2.46-2.45l-3.73-.36-1-.1,4.75-.46a3,3,0,0,0,2.45-2.46L141.21,0l.46,4.75a3,3,0,0,0,2.45,2.45Z" transform="translate(0)"/><path id="Path_6017" data-name="Path 6017" class="cls-6" d="M12.23,26.44a13,13,0,0,1-6.38-1.51,10.72,10.72,0,0,1-4.3-4.3A13.51,13.51,0,0,1,0,14,13.21,13.21,0,0,1,1.53,7.57,10.72,10.72,0,0,1,6,3.24,14.89,14.89,0,0,1,13,1.7a13.74,13.74,0,0,1,3.5.42,13.31,13.31,0,0,1,3.08,1.26l.15,5h-.37l-2-3.7a5.28,5.28,0,0,0-.85-1.28,2.55,2.55,0,0,0-1-.6,9,9,0,0,0-1.05-.27,8.66,8.66,0,0,0-1.25-.09A6.66,6.66,0,0,0,9.31,3.59,7.42,7.42,0,0,0,6.7,7.32,20.11,20.11,0,0,0,5.76,14a21.78,21.78,0,0,0,.87,6.72A7.56,7.56,0,0,0,9.1,24.54a6,6,0,0,0,3.7,1.19,4.46,4.46,0,0,0,.63-.05l.59-.13a1.08,1.08,0,0,0,.89-.56,2.64,2.64,0,0,0,.21-1.11v-7a1.6,1.6,0,0,0-1.42-1.7l-1.64-.44v-.35H18.9a1.25,1.25,0,0,1,1.33,1.17.76.76,0,0,1,0,.15v8.68a17.66,17.66,0,0,1-3.76,1.56,15.55,15.55,0,0,1-4.24.53Z" transform="translate(0)"/><path id="Path_6018" data-name="Path 6018" class="cls-7" d="M30,26.34a9.47,9.47,0,0,1-4.69-1.12A7.64,7.64,0,0,1,22.24,22a10.19,10.19,0,0,1-1.08-4.82,9.55,9.55,0,0,1,1.16-4.8,8,8,0,0,1,3.16-3.13,9.93,9.93,0,0,1,9.05,0,7.93,7.93,0,0,1,3.13,3.11,9.6,9.6,0,0,1,1.17,4.84,10.2,10.2,0,0,1-1.09,4.85,7.7,7.7,0,0,1-3.05,3.17A9.42,9.42,0,0,1,30,26.34Zm0-.71a2.78,2.78,0,0,0,2-.71,4.69,4.69,0,0,0,1.09-2.53,30.25,30.25,0,0,0,.34-5.12,30.6,30.6,0,0,0-.34-5.15A4.69,4.69,0,0,0,32,9.59a2.73,2.73,0,0,0-2-.71,2.81,2.81,0,0,0-2,.71,4.56,4.56,0,0,0-1.09,2.53,29.6,29.6,0,0,0-.35,5.15,30.26,30.26,0,0,0,.35,5.12A4.57,4.57,0,0,0,28,24.92,2.88,2.88,0,0,0,30,25.63Z" transform="translate(0)"/><path id="Path_6019" data-name="Path 6019" class="cls-8" d="M38.23,25.8v-.35l.42-.15a1.86,1.86,0,0,0,1.28-1.78V4.2a1.74,1.74,0,0,0-.28-1.09,1.75,1.75,0,0,0-1-.55l-.46-.11V2.1L43.66.81A1.1,1.1,0,0,1,45,1.63a.69.69,0,0,1,0,.25l0,16.46V21c0,.86,0,1.73,0,2.58a2.07,2.07,0,0,0,.29,1.16,1.65,1.65,0,0,0,1,.65l.46.11v.36Z" transform="translate(0)"/><path id="Path_6020" data-name="Path 6020" class="cls-9" d="M53.55,26.34a7.61,7.61,0,0,1-3.76-.94,6.63,6.63,0,0,1-2.65-2.92,11.43,11.43,0,0,1-1-5.06,11.27,11.27,0,0,1,1.07-5.18,7.48,7.48,0,0,1,2.92-3.06,7.87,7.87,0,0,1,4-1,10.64,10.64,0,0,1,2.38.25,6.91,6.91,0,0,1,2,.74V4.23a2,2,0,0,0-.23-1.1,1.4,1.4,0,0,0-1-.5l-.7-.13V2.13L62.05.82a1.09,1.09,0,0,1,1.32.79.84.84,0,0,1,0,.27l0,21.67a2.34,2.34,0,0,0,.25,1.16,1.36,1.36,0,0,0,.94.62l.31.11v.36l-6.08.39-.31-1.28a8.94,8.94,0,0,1-2.19,1A9.4,9.4,0,0,1,53.55,26.34ZM55.61,25a4.55,4.55,0,0,0,2.73-.89V10a4.88,4.88,0,0,0-2.7-.85,3.43,3.43,0,0,0-2.91,2c-.81,1.32-1.21,3.38-1.21,6.2s.38,4.8,1.14,5.94a3.51,3.51,0,0,0,3,1.76Z" transform="translate(0)"/><path id="Path_6021" data-name="Path 6021" class="cls-10" d="M69.61,25.8v-.43l12-21.46a1.58,1.58,0,0,0-.62-2.13,1.64,1.64,0,0,0-.75-.19H76.08a3.2,3.2,0,0,0-1.9.53,4.93,4.93,0,0,0-1.3,1.57L71.24,6.57h-.35L71.14.88H86.37a1.41,1.41,0,0,1,1.42,1.39,1.41,1.41,0,0,1-.19.7L75.3,25.09h7.75a2.93,2.93,0,0,0,1.88-.55A5.22,5.22,0,0,0,86.18,23l1.53-2.85h.36l-.25,5.69Z" transform="translate(0)"/><path id="Path_6022" data-name="Path 6022" class="cls-11" d="M97.18,26.34a9.47,9.47,0,0,1-4.69-1.12A7.7,7.7,0,0,1,89.41,22a10.19,10.19,0,0,1-1.08-4.82,9.48,9.48,0,0,1,1.15-4.81,8.06,8.06,0,0,1,3.16-3.13,9.9,9.9,0,0,1,9,0,7.83,7.83,0,0,1,3.14,3.11A9.6,9.6,0,0,1,106,17.21a10.31,10.31,0,0,1-1.08,4.85,7.7,7.7,0,0,1-3.06,3.16A9.33,9.33,0,0,1,97.18,26.34Zm0-.71a2.82,2.82,0,0,0,2-.71,4.75,4.75,0,0,0,1.08-2.53,29.25,29.25,0,0,0,.34-5.12,29.59,29.59,0,0,0-.34-5.15,4.61,4.61,0,0,0-1.08-2.53,2.76,2.76,0,0,0-2-.71,2.8,2.8,0,0,0-2,.71,4.5,4.5,0,0,0-1.1,2.53,29.59,29.59,0,0,0-.34,5.15,29.25,29.25,0,0,0,.34,5.12,4.57,4.57,0,0,0,1.1,2.53A2.88,2.88,0,0,0,97.18,25.63Z" transform="translate(0)"/><path id="Path_6023" data-name="Path 6023" class="cls-12" d="M111.72,26.23a5.82,5.82,0,0,1-2.53-.54A3.82,3.82,0,0,1,107.38,24a6.24,6.24,0,0,1-.63-3.15l.11-9.13a2,2,0,0,0-.29-1.18,1.62,1.62,0,0,0-.89-.5l-.43-.14V9.52l5.15-1a1.21,1.21,0,0,1,1.43,1,1,1,0,0,1,0,.24l-.07,12.51a2.05,2.05,0,0,0,.66,1.67,2.48,2.48,0,0,0,1.65.53,5.11,5.11,0,0,0,1.78-.28,6.62,6.62,0,0,0,1.57-.85l.14-11.58a2,2,0,0,0-.25-1.15,1.46,1.46,0,0,0-.92-.48l-.35-.11V9.63l5-1.09a1.22,1.22,0,0,1,1.46.93,1.24,1.24,0,0,1,0,.27l-.06,13.58a2.66,2.66,0,0,0,.22,1.21,1.66,1.66,0,0,0,.93.71l.36.11v.35l-6.23.35-.31-2.1A12.73,12.73,0,0,1,115,25.57,7.42,7.42,0,0,1,111.72,26.23Z" transform="translate(0)"/><path id="Path_6024" data-name="Path 6024" class="cls-13" d="M141.87,33.52a1.58,1.58,0,0,1-1.28-1.75V16l-.2-2.1-.25-2.65a3,3,0,0,0-.37-1h0A3,3,0,0,0,138.41,9a2.87,2.87,0,0,0-.75-.2l-3.72-.38-1.13-.07-2.22-.13a7.43,7.43,0,0,0-3.52,1.07,7.27,7.27,0,0,0-2.76,3.15,11.36,11.36,0,0,0-1,5c0,2.9.66,5.1,2,6.62a6.39,6.39,0,0,0,5,2.27,8.84,8.84,0,0,0,3-.48,8.63,8.63,0,0,0,2.36-1.25v7.08a1.7,1.7,0,0,1-1.35,1.78l-.74.17V34h8.64v-.36Zm-6.33-16.63v6.89a4.51,4.51,0,0,1-2.89,1.14,3.27,3.27,0,0,1-2.91-1.73q-1.06-1.73-1.07-5.81t1.1-6a3.36,3.36,0,0,1,3-1.83,7.26,7.26,0,0,1,.93.06,5.6,5.6,0,0,1,.59.12,4.87,4.87,0,0,1,1.25.57v6.51l0,0A.19.19,0,0,1,135.54,16.89Z" transform="translate(0)"/><path class="cls-14" d="M100.29,28.16h1.2l.7,0,.66,0a3,3,0,0,1,1.59.34,1.08,1.08,0,0,1,.53,1,1.42,1.42,0,0,1-1.18,1.38,1.78,1.78,0,0,1,1.06.48,1.33,1.33,0,0,1,.37,1,1.47,1.47,0,0,1-.67,1.29,3.37,3.37,0,0,1-1.9.46l-.5,0h-1.84l0-.21.55-.15a.15.15,0,0,0,.12-.13v-.37c0-.14,0-.29,0-.46V29.36c0-.14,0-.27,0-.38v-.31a.15.15,0,0,0-.1-.14l-.56-.16Zm1.92,2.57h.4a1.07,1.07,0,0,0,.79-.26,1.21,1.21,0,0,0,.26-.87,1.06,1.06,0,0,0-.27-.82,1,1,0,0,0-.76-.25h-.19l-.23,0Zm0,.38V33.6a3.74,3.74,0,0,0,.49,0,1.09,1.09,0,0,0,.87-.34,1.43,1.43,0,0,0,.29-1,1.27,1.27,0,0,0-.3-.93,1.28,1.28,0,0,0-1-.31Z" transform="translate(0)"/><path class="cls-14" d="M106.17,30.42a4.18,4.18,0,0,1,1.71-.41,1.62,1.62,0,0,1,1.13.34,1.24,1.24,0,0,1,.37,1l0,1.73a3.44,3.44,0,0,0,0,.35.33.33,0,0,0,.08.19.32.32,0,0,0,.18.1,1.46,1.46,0,0,0,.34,0l0,.2a3.32,3.32,0,0,1-1,.2.72.72,0,0,1-.74-.45,1.73,1.73,0,0,1-1.12.45,1.54,1.54,0,0,1-1-.29,1,1,0,0,1-.37-.82,1,1,0,0,1,.6-1,4.28,4.28,0,0,1,1.82-.3v-.31a.86.86,0,0,0-.22-.66.94.94,0,0,0-.68-.21,3.43,3.43,0,0,0-1,.19Zm2,1.72a1.93,1.93,0,0,0-.93.16.6.6,0,0,0-.28.57.65.65,0,0,0,.2.53.75.75,0,0,0,.47.15.88.88,0,0,0,.53-.16Z" transform="translate(0)"/><path class="cls-14" d="M113.53,30a1.32,1.32,0,0,1,1,.33,1.25,1.25,0,0,1,.35.94v2.24a.15.15,0,0,0,.11.14l.51.14V34h-2.33v-.2l.42-.12a.14.14,0,0,0,.1-.13v-2a1,1,0,0,0-.2-.73.75.75,0,0,0-.59-.23,2,2,0,0,0-.72.16v1.84c0,.34,0,.66,0,1a.14.14,0,0,0,.1.14l.43.13V34h-2.35l0-.2.54-.14a.14.14,0,0,0,.1-.13V29.37c0-.36,0-.7,0-1l-.61-.17,0-.17c.69-.1,1.3-.21,1.81-.32l0,0q0,.59,0,1.23v1.46A2.73,2.73,0,0,1,113.53,30Z" transform="translate(0)"/><path class="cls-14" d="M115.77,30.31c.65-.09,1.23-.2,1.76-.31l.06,0v.45a2.89,2.89,0,0,1,1.55-.47l0,0c-.09.44-.18.91-.26,1.42l-.24,0a3.67,3.67,0,0,0-.21-.64.36.36,0,0,0-.33-.22,1.35,1.35,0,0,0-.53.15v1.78c0,.43,0,.74,0,.93a.14.14,0,0,0,.11.14l.59.16,0,.2h-2.53l0-.2.53-.14a.14.14,0,0,0,.11-.13v-1.9c0-.46,0-.78,0-1l-.59-.15Z" transform="translate(0)"/><path class="cls-14" d="M119.74,30.42a4.18,4.18,0,0,1,1.71-.41,1.62,1.62,0,0,1,1.13.34,1.2,1.2,0,0,1,.36,1l0,1.73a3.44,3.44,0,0,0,0,.35.33.33,0,0,0,.08.19.32.32,0,0,0,.18.1,1.46,1.46,0,0,0,.34,0l0,.2a3.32,3.32,0,0,1-1,.2.71.71,0,0,1-.74-.45,1.73,1.73,0,0,1-1.12.45,1.54,1.54,0,0,1-1-.29,1,1,0,0,1-.37-.82,1,1,0,0,1,.6-1,4.28,4.28,0,0,1,1.82-.3v-.31a.86.86,0,0,0-.22-.66.94.94,0,0,0-.68-.21,3.38,3.38,0,0,0-1,.19Zm2,1.72a1.93,1.93,0,0,0-.93.16.6.6,0,0,0-.28.57.65.65,0,0,0,.2.53.75.75,0,0,0,.47.15.88.88,0,0,0,.53-.16Z" transform="translate(0)"/><path class="cls-14" d="M123.9,30.31c.69-.1,1.29-.21,1.8-.32l0,0c0,.38,0,.79,0,1.22v1.57c0,.33,0,.56,0,.7a.15.15,0,0,0,.11.14l.52.14V34h-2.45l0-.2.53-.14a.13.13,0,0,0,.1-.13c0-.11,0-.29,0-.54V31.64c0-.36,0-.69,0-1l-.59-.15Zm1.84-1.7a.63.63,0,0,1-.19.47.72.72,0,0,1-.94,0,.6.6,0,0,1-.17-.44.63.63,0,0,1,.18-.47.73.73,0,0,1,.49-.17.67.67,0,0,1,.45.16A.54.54,0,0,1,125.74,28.61Z" transform="translate(0)"/><path class="cls-14" d="M126.73,30.31c.65-.09,1.23-.2,1.76-.31l.06,0v.45A2.55,2.55,0,0,1,130,30a1.32,1.32,0,0,1,1,.33,1.25,1.25,0,0,1,.35.94v2.24a.15.15,0,0,0,.11.14l.51.14V34h-2.33v-.2l.41-.12a.14.14,0,0,0,.11-.13v-2a1,1,0,0,0-.2-.73.75.75,0,0,0-.59-.23,1.48,1.48,0,0,0-.72.21v1.79c0,.34,0,.66,0,1a.14.14,0,0,0,.1.14l.43.13V34h-2.35l0-.2.54-.14a.14.14,0,0,0,.1-.13V31.65c0-.37,0-.7,0-1l-.59-.15Z" transform="translate(0)"/></g></svg>