<svg xmlns="http://www.w3.org/2000/svg" xmlns:xlink="http://www.w3.org/1999/xlink" width="148.868" height="33.991" viewBox="0 0 148.868 33.991">
  <defs>
    <linearGradient id="linear-gradient" x1="-2.238" y1="0.613" x2="98.925" y2="-3.524" gradientUnits="objectBoundingBox">
      <stop offset="0" stop-color="#270016"/>
      <stop offset="0.17" stop-color="#2a0016"/>
      <stop offset="0.31" stop-color="#340016"/>
      <stop offset="0.44" stop-color="#450017"/>
      <stop offset="0.53" stop-color="#550017"/>
      <stop offset="0.59" stop-color="#5a061b"/>
      <stop offset="0.68" stop-color="#681725"/>
      <stop offset="0.79" stop-color="#7f3436"/>
      <stop offset="0.9" stop-color="#9e5b4e"/>
      <stop offset="1" stop-color="#be8265"/>
    </linearGradient>
    <linearGradient id="linear-gradient-2" x1="-16.936" y1="1.939" x2="571.884" y2="-46.735" xlink:href="#linear-gradient"/>
    <linearGradient id="linear-gradient-3" x1="-12.616" y1="1.868" x2="397.455" y2="-40.976" xlink:href="#linear-gradient"/>
    <linearGradient id="linear-gradient-4" x1="-21.537" y1="4.465" x2="538.561" y2="-96.31" xlink:href="#linear-gradient"/>
    <linearGradient id="linear-gradient-5" x1="0.507" y1="1.025" x2="0.495" y2="0.142" gradientUnits="objectBoundingBox">
      <stop offset="0" stop-color="#b37e23"/>
      <stop offset="0.1" stop-color="#c38c1e"/>
      <stop offset="0.25" stop-color="#d69d18"/>
      <stop offset="0.36" stop-color="#dda316"/>
      <stop offset="0.74" stop-color="#ffce0a"/>
      <stop offset="1" stop-color="#ffd604"/>
    </linearGradient>
    <linearGradient id="linear-gradient-6" x1="-0.35" y1="0.539" x2="7.242" y2="0.234" gradientUnits="objectBoundingBox">
      <stop offset="0" stop-color="#543b2d"/>
      <stop offset="0.16" stop-color="#573d2e"/>
      <stop offset="0.29" stop-color="#614233"/>
      <stop offset="0.41" stop-color="#724a3a"/>
      <stop offset="0.51" stop-color="#895643"/>
      <stop offset="0.53" stop-color="#8d5845"/>
      <stop offset="0.62" stop-color="#875441"/>
      <stop offset="0.75" stop-color="#764937"/>
      <stop offset="0.89" stop-color="#593827"/>
      <stop offset="1" stop-color="#402818"/>
    </linearGradient>
    <linearGradient id="linear-gradient-7" x1="-1.587" y1="0.6" x2="7.104" y2="0.184" xlink:href="#linear-gradient-6"/>
    <linearGradient id="linear-gradient-8" x1="-5.31" y1="0.603" x2="12.722" y2="0.301" xlink:href="#linear-gradient-6"/>
    <linearGradient id="linear-gradient-9" x1="-2.844" y1="0.627" x2="5.374" y2="0.332" xlink:href="#linear-gradient-6"/>
    <linearGradient id="linear-gradient-10" x1="-4.15" y1="0.67" x2="4.175" y2="0.367" xlink:href="#linear-gradient-6"/>
    <linearGradient id="linear-gradient-11" x1="-5.377" y1="0.781" x2="3.313" y2="0.365" xlink:href="#linear-gradient-6"/>
    <linearGradient id="linear-gradient-12" x1="-5.956" y1="0.83" x2="2.217" y2="0.404" xlink:href="#linear-gradient-6"/>
    <linearGradient id="linear-gradient-13" x1="-6.874" y1="0.772" x2="1.264" y2="0.479" xlink:href="#linear-gradient-6"/>
  </defs>
  <g id="Layer_2" data-name="Layer 2" transform="translate(0.011)">
    <g id="Layer_1" data-name="Layer 1" transform="translate(-0.011)">
      <path id="Path_6012" data-name="Path 6012" d="M15.336,52.7a15.5,15.5,0,0,0,1.414,5.412A15.527,15.527,0,0,1,15.33,52.7Z" transform="translate(-10.531 -36.213)" fill="url(#linear-gradient)"/>
      <path id="Path_6013" data-name="Path 6013" d="M20.114,70.48q-.128-.225-.244-.46Q19.989,70.255,20.114,70.48Z" transform="translate(-13.65 -48.114)" fill="url(#linear-gradient-2)"/>
      <path id="Path_6014" data-name="Path 6014" d="M21.56,72.942c-.122-.166-.241-.341-.35-.522C21.323,72.6,21.438,72.777,21.56,72.942Z" transform="translate(-14.571 -49.764)" fill="url(#linear-gradient-3)"/>
      <path id="Path_6015" data-name="Path 6015" d="M25.837,77.962c-.088-.072-.172-.144-.257-.222C25.664,77.821,25.752,77.89,25.837,77.962Z" transform="translate(-17.574 -53.419)" fill="url(#linear-gradient-4)"/>
      <path id="Path_6016" data-name="Path 6016" d="M442.224,7.655l-4.749.457a2.969,2.969,0,0,0-2.45,2.459l-.457,4.736-.2-2.1-.254-2.65a2.962,2.962,0,0,0-2.462-2.45l-3.723-.36-1.01-.1,4.743-.46a2.966,2.966,0,0,0,2.453-2.459L434.569,0l.46,4.749A2.966,2.966,0,0,0,437.475,7.2Z" transform="translate(-293.356)" fill="url(#linear-gradient-5)"/>
      <path id="Path_6017" data-name="Path 6017" d="M12.222,30.172A13.058,13.058,0,0,1,5.84,28.661a10.74,10.74,0,0,1-4.3-4.3A13.426,13.426,0,0,1-.007,17.765a13.18,13.18,0,0,1,1.53-6.47,10.637,10.637,0,0,1,4.414-4.32,14.868,14.868,0,0,1,7.033-1.545,13.693,13.693,0,0,1,3.5.425,13.14,13.14,0,0,1,3.075,1.251l.156,4.971h-.369l-1.99-3.7a5.444,5.444,0,0,0-.854-1.28,2.637,2.637,0,0,0-.995-.6,9.088,9.088,0,0,0-1.051-.263,7.124,7.124,0,0,0-1.251-.091A6.645,6.645,0,0,0,9.3,7.315a7.448,7.448,0,0,0-2.615,3.732,20.242,20.242,0,0,0-.932,6.717,21.573,21.573,0,0,0,.87,6.72A7.53,7.53,0,0,0,9.093,28.27a6.022,6.022,0,0,0,3.7,1.192,3.714,3.714,0,0,0,.625-.053c.2-.035.4-.078.586-.125a1.082,1.082,0,0,0,.892-.569,2.628,2.628,0,0,0,.213-1.1V20.574a1.607,1.607,0,0,0-1.423-1.708l-1.639-.432v-.35h6.842a1.251,1.251,0,0,1,1.336,1.311v8.681a17.3,17.3,0,0,1-3.754,1.564,15.805,15.805,0,0,1-4.245.532Z" transform="translate(0.011 -3.73)" fill="url(#linear-gradient-6)"/>
      <path id="Path_6018" data-name="Path 6018" d="M76.477,44.291a9.4,9.4,0,0,1-4.693-1.12,7.624,7.624,0,0,1-3.078-3.182,10.24,10.24,0,0,1-1.082-4.827,9.548,9.548,0,0,1,1.154-4.8,8.053,8.053,0,0,1,3.166-3.128,9.9,9.9,0,0,1,9.048-.016,7.931,7.931,0,0,1,3.128,3.11,9.583,9.583,0,0,1,1.173,4.837,10.227,10.227,0,0,1-1.086,4.852,7.7,7.7,0,0,1-3.057,3.163A9.313,9.313,0,0,1,76.477,44.291Zm0-.71a2.772,2.772,0,0,0,1.99-.71,4.687,4.687,0,0,0,1.086-2.525,30.072,30.072,0,0,0,.335-5.121,30.285,30.285,0,0,0-.335-5.153,4.664,4.664,0,0,0-1.086-2.525,2.759,2.759,0,0,0-1.99-.713,2.816,2.816,0,0,0-2.012.713,4.536,4.536,0,0,0-1.095,2.525,29.9,29.9,0,0,0-.344,5.153,29.69,29.69,0,0,0,.344,5.121,4.579,4.579,0,0,0,1.1,2.525A2.841,2.841,0,0,0,76.477,43.581Z" transform="translate(-46.462 -17.955)" fill="url(#linear-gradient-7)"/>
      <path id="Path_6019" data-name="Path 6019" d="M122.1,27.521v-.357l.422-.141a1.877,1.877,0,0,0,1.283-1.78V5.913a1.761,1.761,0,0,0-.285-1.086,1.755,1.755,0,0,0-.995-.551l-.463-.106V3.814l5.472-1.286a1.095,1.095,0,0,1,1.342,1.067l-.022,16.462v2.612c0,.863.019,1.727.019,2.578a2.109,2.109,0,0,0,.285,1.158,1.683,1.683,0,0,0,.96.657l.463.106v.357Z" transform="translate(-83.871 -1.718)" fill="url(#linear-gradient-8)"/>
      <path id="Path_6020" data-name="Path 6020" d="M154.94,28.069a7.508,7.508,0,0,1-3.754-.939,6.57,6.57,0,0,1-2.65-2.916,11.42,11.42,0,0,1-.976-5.065,11.2,11.2,0,0,1,1.076-5.178,7.427,7.427,0,0,1,2.916-3.057A7.949,7.949,0,0,1,155.519,9.9a11.11,11.11,0,0,1,2.381.25,7.3,7.3,0,0,1,2.027.745V5.963a2.068,2.068,0,0,0-.232-1.1,1.423,1.423,0,0,0-.976-.5l-.7-.128V3.867l5.419-1.311A1.092,1.092,0,0,1,164.8,3.61l-.047,21.677A2.355,2.355,0,0,0,165,26.442a1.4,1.4,0,0,0,.939.626l.313.106v.357l-6.079.391-.313-1.28a8.631,8.631,0,0,1-2.19,1.029A8.978,8.978,0,0,1,154.94,28.069ZM157,26.755a4.608,4.608,0,0,0,2.737-.888V11.744a4.9,4.9,0,0,0-2.7-.854,3.449,3.449,0,0,0-2.916,1.974q-1.208,1.974-1.208,6.2t1.136,5.944A3.512,3.512,0,0,0,157,26.761Z" transform="translate(-101.393 -1.733)" fill="url(#linear-gradient-9)"/>
      <path id="Path_6021" data-name="Path 6021" d="M222.51,27.741v-.429L234.451,5.845a1.564,1.564,0,0,0-1.367-2.315h-4.108a3.157,3.157,0,0,0-1.9.532,4.756,4.756,0,0,0-1.3,1.564L224.14,8.508h-.354l.247-5.688h15.236A1.4,1.4,0,0,1,240.5,4.907L228.2,27.028h7.749a2.913,2.913,0,0,0,1.877-.551,5.206,5.206,0,0,0,1.251-1.564l1.53-2.847h.354l-.247,5.691Z" transform="translate(-152.895 -1.938)" fill="url(#linear-gradient-10)"/>
      <path id="Path_6022" data-name="Path 6022" d="M291.175,44.277a9.4,9.4,0,0,1-4.693-1.12,7.637,7.637,0,0,1-3.075-3.182,10.239,10.239,0,0,1-1.086-4.827,9.516,9.516,0,0,1,1.148-4.808,8.043,8.043,0,0,1,3.163-3.128,9.9,9.9,0,0,1,9.047-.016,7.937,7.937,0,0,1,3.147,3.11,9.614,9.614,0,0,1,1.164,4.843A10.227,10.227,0,0,1,298.909,40a7.706,7.706,0,0,1-3.06,3.163,9.3,9.3,0,0,1-4.674,1.114Zm0-.71a2.772,2.772,0,0,0,1.993-.71,4.64,4.64,0,0,0,1.086-2.525,29.687,29.687,0,0,0,.338-5.121,29.9,29.9,0,0,0-.338-5.153,4.618,4.618,0,0,0-1.086-2.525,2.759,2.759,0,0,0-1.99-.713,2.816,2.816,0,0,0-2.009.713,4.564,4.564,0,0,0-1.1,2.525,29.9,29.9,0,0,0-.338,5.153,29.693,29.693,0,0,0,.338,5.121,4.579,4.579,0,0,0,1.1,2.525A2.838,2.838,0,0,0,291.175,43.567Z" transform="translate(-193.992 -17.941)" fill="url(#linear-gradient-11)"/>
      <path id="Path_6023" data-name="Path 6023" d="M342.9,44.878a5.975,5.975,0,0,1-2.537-.535,3.9,3.9,0,0,1-1.811-1.724,6.208,6.208,0,0,1-.626-3.147l.106-9.135a1.877,1.877,0,0,0-.285-1.173,1.539,1.539,0,0,0-.892-.5l-.426-.144v-.347l5.146-1.007a1.226,1.226,0,0,1,1.458,1.208l-.062,12.514a2.029,2.029,0,0,0,.657,1.671,2.528,2.528,0,0,0,1.652.532,5.218,5.218,0,0,0,1.777-.282,6.391,6.391,0,0,0,1.564-.854l.144-11.575a2.009,2.009,0,0,0-.25-1.154,1.492,1.492,0,0,0-.923-.482l-.347-.109v-.354l5.043-1.095a1.223,1.223,0,0,1,1.483,1.2l-.056,13.581a2.724,2.724,0,0,0,.216,1.208,1.636,1.636,0,0,0,.938.71l.357.109v.354L349,44.7l-.313-2.1a12.559,12.559,0,0,1-2.543,1.617A7.314,7.314,0,0,1,342.9,44.878Z" transform="translate(-231.176 -18.649)" fill="url(#linear-gradient-12)"/>
      <path id="Path_6024" data-name="Path 6024" d="M412.718,51.494a1.567,1.567,0,0,1-1.28-1.743V33.925l-.2-2.1-.253-2.65a2.908,2.908,0,0,0-.372-1.026h0a2.928,2.928,0,0,0-1.361-1.211,2.964,2.964,0,0,0-.751-.206l-3.714-.375-1.132-.069-2.218-.131a7.417,7.417,0,0,0-3.526,1.07,7.311,7.311,0,0,0-2.756,3.147,11.548,11.548,0,0,0-.995,5.046q0,4.339,1.99,6.614a6.373,6.373,0,0,0,5.006,2.274,8.732,8.732,0,0,0,2.966-.479,8.894,8.894,0,0,0,2.365-1.251v7.077a1.7,1.7,0,0,1-1.352,1.777l-.745.178v.354h8.647v-.354ZM406.389,34.87v6.883a4.489,4.489,0,0,1-2.894,1.139,3.273,3.273,0,0,1-2.913-1.727q-1.064-1.727-1.067-5.813,0-4.192,1.1-6.025A3.349,3.349,0,0,1,403.6,27.5a6.752,6.752,0,0,1,.939.059,4.382,4.382,0,0,1,.585.119,4.449,4.449,0,0,1,1.251.569v6.513l.025.031Q406.4,34.829,406.389,34.87Z" transform="translate(-270.845 -17.976)" fill="url(#linear-gradient-13)"/>
    </g>
  </g>
</svg>
