<?xml version="1.0" encoding="utf-8"?>
<!-- Generator: Adobe Illustrator 26.0.3, SVG Export Plug-In . SVG Version: 6.00 Build 0)  -->
<svg version="1.1" id="Layer_1" xmlns="http://www.w3.org/2000/svg" xmlns:xlink="http://www.w3.org/1999/xlink" x="0px" y="0px"
	 viewBox="0 0 148.9 34" style="enable-background:new 0 0 148.9 34;" xml:space="preserve">
<style type="text/css">
	.st0{fill:url(#Path_6012_00000064347193078489114070000005339096656719051405_);}
	.st1{fill:url(#Path_6013_00000174564546305760442130000010591393074043450268_);}
	.st2{fill:url(#Path_6014_00000113334317537540807560000001654385015745268405_);}
	.st3{fill:url(#Path_6015_00000181060627816604194700000010568657371626993589_);}
	.st4{fill:url(#Path_6016_00000163057587065767154510000014940973312058683781_);}
	.st5{fill:url(#Path_6017_00000149381494388808565860000012756026124178385591_);}
	.st6{fill:url(#Path_6018_00000138565036315931604940000010733055387217324182_);}
	.st7{fill:url(#Path_6019_00000067208301458310814370000014396085004039932331_);}
	.st8{fill:url(#Path_6020_00000088835143536987743080000000408708906388125105_);}
	.st9{fill:url(#Path_6021_00000057121436746189495450000007063048451198853510_);}
	.st10{fill:url(#Path_6022_00000087403025384560113670000018167261082258728627_);}
	.st11{fill:url(#Path_6023_00000171679572220077313440000018378932507297425084_);}
	.st12{fill:url(#Path_6024_00000145755315280731433240000001078522767604057764_);}
	.st13{fill:none;}
	.st14{fill:url(#SVGID_1_);}
	.st15{fill:url(#SVGID_00000056391227312620487830000017248044966474746792_);}
	.st16{fill:url(#SVGID_00000021803801441041473380000009774055230505959348_);}
	.st17{fill:url(#SVGID_00000043444586183566063190000002940457251945502091_);}
	.st18{fill:url(#SVGID_00000018203872221102084880000015267484217028315526_);}
	.st19{fill:url(#SVGID_00000120522220189635380000000010376335297487629994_);}
	.st20{fill:url(#SVGID_00000006670751764485483660000001663713402021933204_);}
</style>
<g id="Layer_2_00000042001773712414296010000003493211076514156213_" transform="translate(0.011)">
	<g id="Layer_1_00000155851498402311646470000010240708736812268942_" transform="translate(-0.011)">
		
			<linearGradient id="Path_6012_00000093887033059600104560000016853272707009211012_" gradientUnits="userSpaceOnUse" x1="-139.7733" y1="460.9357" x2="-38.6103" y2="465.0727" gradientTransform="matrix(1.42 0 0 -5.412 200.099 2514.3823)">
			<stop  offset="0" style="stop-color:#270016"/>
			<stop  offset="0.17" style="stop-color:#2A0016"/>
			<stop  offset="0.31" style="stop-color:#340016"/>
			<stop  offset="0.44" style="stop-color:#450017"/>
			<stop  offset="0.53" style="stop-color:#550017"/>
			<stop  offset="0.59" style="stop-color:#5A061B"/>
			<stop  offset="0.68" style="stop-color:#681725"/>
			<stop  offset="0.79" style="stop-color:#7F3436"/>
			<stop  offset="0.9" style="stop-color:#9E5B4E"/>
			<stop  offset="1" style="stop-color:#BE8265"/>
		</linearGradient>
		<path id="Path_6012" style="fill:url(#Path_6012_00000093887033059600104560000016853272707009211012_);" d="M4.8,16.5
			c0.1,1.9,0.6,3.7,1.4,5.4C5.4,20.2,4.9,18.4,4.8,16.5L4.8,16.5z"/>
		
			<linearGradient id="Path_6013_00000068639188719180427260000014559207979935003057_" gradientUnits="userSpaceOnUse" x1="1423.8059" y1="-578.7262" x2="2012.6259" y2="-530.0522" gradientTransform="matrix(0.244 0 0 -0.46 -345.3203 -243.4145)">
			<stop  offset="0" style="stop-color:#270016"/>
			<stop  offset="0.17" style="stop-color:#2A0016"/>
			<stop  offset="0.31" style="stop-color:#340016"/>
			<stop  offset="0.44" style="stop-color:#450017"/>
			<stop  offset="0.53" style="stop-color:#550017"/>
			<stop  offset="0.59" style="stop-color:#5A061B"/>
			<stop  offset="0.68" style="stop-color:#681725"/>
			<stop  offset="0.79" style="stop-color:#7F3436"/>
			<stop  offset="0.9" style="stop-color:#9E5B4E"/>
			<stop  offset="1" style="stop-color:#BE8265"/>
		</linearGradient>
		<path id="Path_6013" style="fill:url(#Path_6013_00000068639188719180427260000014559207979935003057_);" d="M6.5,22.4
			c-0.1-0.1-0.2-0.3-0.2-0.5C6.3,22.1,6.4,22.2,6.5,22.4z"/>
		
			<linearGradient id="Path_6014_00000121277346153218108550000004198298720551315887_" gradientUnits="userSpaceOnUse" x1="850.9542" y1="-443.8643" x2="1261.0253" y2="-401.0202" gradientTransform="matrix(0.35 0 0 -0.522 -295.6108 -208.0662)">
			<stop  offset="0" style="stop-color:#270016"/>
			<stop  offset="0.17" style="stop-color:#2A0016"/>
			<stop  offset="0.31" style="stop-color:#340016"/>
			<stop  offset="0.44" style="stop-color:#450017"/>
			<stop  offset="0.53" style="stop-color:#550017"/>
			<stop  offset="0.59" style="stop-color:#5A061B"/>
			<stop  offset="0.68" style="stop-color:#681725"/>
			<stop  offset="0.79" style="stop-color:#7F3436"/>
			<stop  offset="0.9" style="stop-color:#9E5B4E"/>
			<stop  offset="1" style="stop-color:#BE8265"/>
		</linearGradient>
		<path id="Path_6014" style="fill:url(#Path_6014_00000121277346153218108550000004198298720551315887_);" d="M7,23.2
			c-0.1-0.2-0.2-0.3-0.4-0.5C6.8,22.8,6.9,23,7,23.2z"/>
		
			<linearGradient id="Path_6015_00000125565191857291809860000015093803549751753905_" gradientUnits="userSpaceOnUse" x1="1322.8018" y1="-1797.8151" x2="1882.8997" y2="-1697.04" gradientTransform="matrix(0.257 0 0 -0.222 -337.489 -373.8029)">
			<stop  offset="0" style="stop-color:#270016"/>
			<stop  offset="0.17" style="stop-color:#2A0016"/>
			<stop  offset="0.31" style="stop-color:#340016"/>
			<stop  offset="0.44" style="stop-color:#450017"/>
			<stop  offset="0.53" style="stop-color:#550017"/>
			<stop  offset="0.59" style="stop-color:#5A061B"/>
			<stop  offset="0.68" style="stop-color:#681725"/>
			<stop  offset="0.79" style="stop-color:#7F3436"/>
			<stop  offset="0.9" style="stop-color:#9E5B4E"/>
			<stop  offset="1" style="stop-color:#BE8265"/>
		</linearGradient>
		<path id="Path_6015" style="fill:url(#Path_6015_00000125565191857291809860000015093803549751753905_);" d="M8.3,24.5
			c-0.1-0.1-0.2-0.1-0.3-0.2C8.1,24.4,8.2,24.5,8.3,24.5z"/>
		
			<linearGradient id="Path_6016_00000176031482733773988320000007083827587857702284_" gradientUnits="userSpaceOnUse" x1="-434.1107" y1="522.873" x2="-434.1227" y2="523.756" gradientTransform="matrix(15.305 0 0 -15.307 6785.3989 8019.3066)">
			<stop  offset="0" style="stop-color:#B37E23"/>
			<stop  offset="0.1" style="stop-color:#C38C1E"/>
			<stop  offset="0.25" style="stop-color:#D69D18"/>
			<stop  offset="0.36" style="stop-color:#DDA316"/>
			<stop  offset="0.74" style="stop-color:#FFCE0A"/>
			<stop  offset="1" style="stop-color:#FFD604"/>
		</linearGradient>
		<path id="Path_6016" style="fill:url(#Path_6016_00000176031482733773988320000007083827587857702284_);" d="M148.9,7.7l-4.7,0.5
			c-1.3,0.2-2.2,1.2-2.5,2.5l-0.5,4.7l-0.2-2.1l-0.3-2.6c-0.2-1.3-1.2-2.3-2.5-2.4l-3.7-0.4l-1-0.1l4.7-0.5c1.3-0.2,2.3-1.2,2.5-2.5
			l0.5-4.7l0.5,4.7c0.2,1.3,1.2,2.2,2.4,2.5L148.9,7.7z"/>
		
			<linearGradient id="Path_6017_00000045613672709246795220000010760458491613961883_" gradientUnits="userSpaceOnUse" x1="-442.3731" y1="536.3711" x2="-434.7811" y2="536.6761" gradientTransform="matrix(20.2377 0 0 -24.751 8945.5215 13290.7266)">
			<stop  offset="0" style="stop-color:#543B2D"/>
			<stop  offset="0.16" style="stop-color:#573D2E"/>
			<stop  offset="0.29" style="stop-color:#614233"/>
			<stop  offset="0.41" style="stop-color:#724A3A"/>
			<stop  offset="0.51" style="stop-color:#895643"/>
			<stop  offset="0.53" style="stop-color:#8D5845"/>
			<stop  offset="0.62" style="stop-color:#875441"/>
			<stop  offset="0.75" style="stop-color:#764937"/>
			<stop  offset="0.89" style="stop-color:#593827"/>
			<stop  offset="1" style="stop-color:#402818"/>
		</linearGradient>
		<path id="Path_6017" style="fill:url(#Path_6017_00000045613672709246795220000010760458491613961883_);" d="M12.2,26.4
			c-2.2,0-4.4-0.5-6.4-1.5c-1.8-1-3.3-2.5-4.3-4.3c-1.1-2-1.6-4.3-1.5-6.6C0,11.8,0.5,9.6,1.5,7.6c1-1.8,2.5-3.3,4.4-4.3
			c2.2-1.1,4.6-1.6,7-1.5c1.2,0,2.4,0.1,3.5,0.4c1.1,0.3,2.1,0.7,3.1,1.3l0.2,5h-0.4l-2-3.7c-0.2-0.5-0.5-0.9-0.9-1.3
			c-0.3-0.3-0.6-0.5-1-0.6c-0.3-0.1-0.7-0.2-1.1-0.3c-0.4-0.1-0.8-0.1-1.3-0.1c-1.4,0-2.7,0.4-3.9,1.2C8.1,4.5,7.2,5.8,6.7,7.3
			C6,9.5,5.7,11.8,5.8,14c-0.1,2.3,0.2,4.5,0.9,6.7c0.4,1.5,1.3,2.8,2.5,3.8c1.1,0.8,2.4,1.2,3.7,1.2c0.2,0,0.4,0,0.6-0.1
			c0.2,0,0.4-0.1,0.6-0.1c0.4,0,0.7-0.2,0.9-0.6c0.1-0.3,0.2-0.7,0.2-1.1v-7c0.1-0.9-0.6-1.6-1.4-1.7l-1.6-0.4v-0.4h6.8
			c0.7,0,1.3,0.5,1.3,1.2c0,0,0,0.1,0,0.1v8.7c-1.2,0.7-2.4,1.2-3.8,1.6C15.1,26.3,13.7,26.5,12.2,26.4L12.2,26.4z"/>
		
			<linearGradient id="Path_6018_00000126314825817689696960000004297844678871308937_" gradientUnits="userSpaceOnUse" x1="-440.2792" y1="528.6594" x2="-431.5882" y2="529.0754" gradientTransform="matrix(17.6754 0 0 -18.1626 7775.2163 9620.9297)">
			<stop  offset="0" style="stop-color:#543B2D"/>
			<stop  offset="0.16" style="stop-color:#573D2E"/>
			<stop  offset="0.29" style="stop-color:#614233"/>
			<stop  offset="0.41" style="stop-color:#724A3A"/>
			<stop  offset="0.51" style="stop-color:#895643"/>
			<stop  offset="0.53" style="stop-color:#8D5845"/>
			<stop  offset="0.62" style="stop-color:#875441"/>
			<stop  offset="0.75" style="stop-color:#764937"/>
			<stop  offset="0.89" style="stop-color:#593827"/>
			<stop  offset="1" style="stop-color:#402818"/>
		</linearGradient>
		<path id="Path_6018" style="fill:url(#Path_6018_00000126314825817689696960000004297844678871308937_);" d="M30,26.3
			c-1.6,0-3.3-0.3-4.7-1.1c-1.3-0.7-2.4-1.8-3.1-3.2c-0.7-1.5-1.1-3.2-1.1-4.8c0-1.7,0.4-3.3,1.2-4.8c0.7-1.3,1.8-2.4,3.2-3.1
			c2.8-1.5,6.2-1.5,9,0c1.3,0.7,2.4,1.8,3.1,3.1c0.8,1.5,1.2,3.1,1.2,4.8c0,1.7-0.3,3.3-1.1,4.9c-0.7,1.3-1.8,2.4-3.1,3.2
			C33.3,26,31.6,26.4,30,26.3z M30,25.6c0.7,0,1.4-0.2,2-0.7c0.6-0.7,1-1.6,1.1-2.5c0.3-1.7,0.4-3.4,0.3-5.1c0-1.7-0.1-3.4-0.3-5.2
			c-0.1-0.9-0.5-1.8-1.1-2.5c-0.5-0.5-1.3-0.7-2-0.7c-0.7,0-1.5,0.2-2,0.7c-0.6,0.7-1,1.6-1.1,2.5c-0.3,1.7-0.4,3.4-0.3,5.2
			c0,1.7,0.1,3.4,0.3,5.1c0.1,0.9,0.5,1.8,1.1,2.5C28.6,25.4,29.3,25.7,30,25.6z"/>
		
			<linearGradient id="Path_6019_00000076568942913899253860000004424113336763803795_" gradientUnits="userSpaceOnUse" x1="-415.7262" y1="536.5383" x2="-397.6942" y2="536.8403" gradientTransform="matrix(8.519 0 0 -25.0255 3534.5283 13442.9912)">
			<stop  offset="0" style="stop-color:#543B2D"/>
			<stop  offset="0.16" style="stop-color:#573D2E"/>
			<stop  offset="0.29" style="stop-color:#614233"/>
			<stop  offset="0.41" style="stop-color:#724A3A"/>
			<stop  offset="0.51" style="stop-color:#895643"/>
			<stop  offset="0.53" style="stop-color:#8D5845"/>
			<stop  offset="0.62" style="stop-color:#875441"/>
			<stop  offset="0.75" style="stop-color:#764937"/>
			<stop  offset="0.89" style="stop-color:#593827"/>
			<stop  offset="1" style="stop-color:#402818"/>
		</linearGradient>
		<path id="Path_6019" style="fill:url(#Path_6019_00000076568942913899253860000004424113336763803795_);" d="M38.2,25.8v-0.4
			l0.4-0.1c0.8-0.3,1.3-1,1.3-1.8V4.2c0-0.4-0.1-0.8-0.3-1.1c-0.3-0.3-0.6-0.5-1-0.6l-0.5-0.1V2.1l5.5-1.3C44.3,0.7,44.8,1,45,1.6
			c0,0.1,0,0.2,0,0.2l0,16.5V21c0,0.9,0,1.7,0,2.6c0,0.4,0.1,0.8,0.3,1.2c0.2,0.3,0.6,0.6,1,0.7l0.5,0.1v0.4L38.2,25.8z"/>
		
			<linearGradient id="Path_6020_00000098212310750427796310000007913065231321366149_" gradientUnits="userSpaceOnUse" x1="-442.9777" y1="536.9412" x2="-434.7597" y2="537.2361" gradientTransform="matrix(18.7 0 0 -25.5481 8276.6572 13734.6152)">
			<stop  offset="0" style="stop-color:#543B2D"/>
			<stop  offset="0.16" style="stop-color:#573D2E"/>
			<stop  offset="0.29" style="stop-color:#614233"/>
			<stop  offset="0.41" style="stop-color:#724A3A"/>
			<stop  offset="0.51" style="stop-color:#895643"/>
			<stop  offset="0.53" style="stop-color:#8D5845"/>
			<stop  offset="0.62" style="stop-color:#875441"/>
			<stop  offset="0.75" style="stop-color:#764937"/>
			<stop  offset="0.89" style="stop-color:#593827"/>
			<stop  offset="1" style="stop-color:#402818"/>
		</linearGradient>
		<path id="Path_6020" style="fill:url(#Path_6020_00000098212310750427796310000007913065231321366149_);" d="M53.5,26.3
			c-1.3,0-2.6-0.3-3.8-0.9c-1.2-0.7-2.1-1.7-2.6-2.9c-0.7-1.6-1-3.3-1-5.1c-0.1-1.8,0.3-3.6,1.1-5.2c0.7-1.3,1.7-2.3,2.9-3.1
			c1.2-0.7,2.6-1,4-1c0.8,0,1.6,0.1,2.4,0.2c0.7,0.1,1.4,0.4,2,0.7V4.2c0-0.4-0.1-0.8-0.2-1.1c-0.2-0.3-0.6-0.5-1-0.5l-0.7-0.1V2.1
			L62,0.8c0.6-0.1,1.2,0.2,1.3,0.8c0,0.1,0,0.2,0,0.3l0,21.7c0,0.4,0.1,0.8,0.2,1.2c0.2,0.3,0.6,0.6,0.9,0.6l0.3,0.1v0.4l-6.1,0.4
			l-0.3-1.3c-0.7,0.4-1.4,0.8-2.2,1C55.4,26.2,54.5,26.3,53.5,26.3z M55.6,25c1,0,1.9-0.3,2.7-0.9V10c-0.8-0.5-1.7-0.8-2.7-0.9
			c-1.3,0.1-2.4,0.8-2.9,2c-0.8,1.3-1.2,3.4-1.2,6.2s0.4,4.8,1.1,5.9C53.3,24.3,54.4,25,55.6,25L55.6,25z"/>
		
			<linearGradient id="Path_6021_00000062169082496059420970000010789290113207862426_" gradientUnits="userSpaceOnUse" x1="-443.9481" y1="536.3968" x2="-435.6231" y2="536.6998" gradientTransform="matrix(18.451 0 0 -24.937 8184.332 13393.7539)">
			<stop  offset="0" style="stop-color:#543B2D"/>
			<stop  offset="0.16" style="stop-color:#573D2E"/>
			<stop  offset="0.29" style="stop-color:#614233"/>
			<stop  offset="0.41" style="stop-color:#724A3A"/>
			<stop  offset="0.51" style="stop-color:#895643"/>
			<stop  offset="0.53" style="stop-color:#8D5845"/>
			<stop  offset="0.62" style="stop-color:#875441"/>
			<stop  offset="0.75" style="stop-color:#764937"/>
			<stop  offset="0.89" style="stop-color:#593827"/>
			<stop  offset="1" style="stop-color:#402818"/>
		</linearGradient>
		<path id="Path_6021" style="fill:url(#Path_6021_00000062169082496059420970000010789290113207862426_);" d="M69.6,25.8v-0.4
			L81.6,3.9c0.4-0.8,0.1-1.7-0.6-2.1c-0.2-0.1-0.5-0.2-0.7-0.2h-4.1c-0.7,0-1.3,0.2-1.9,0.5c-0.5,0.4-1,1-1.3,1.6l-1.6,2.9h-0.4
			l0.2-5.7h15.2c0.8,0,1.4,0.6,1.4,1.4c0,0.2-0.1,0.5-0.2,0.7L75.3,25.1h7.7c0.7,0,1.3-0.2,1.9-0.6c0.5-0.4,0.9-1,1.3-1.6l1.5-2.8
			h0.4l-0.2,5.7L69.6,25.8z"/>
		
			<linearGradient id="Path_6022_00000142879530951973703260000005480907296028807600_" gradientUnits="userSpaceOnUse" x1="-444.0706" y1="528.4902" x2="-435.3806" y2="528.9062" gradientTransform="matrix(17.6763 0 0 -18.1704 7842.8188 9625.2256)">
			<stop  offset="0" style="stop-color:#543B2D"/>
			<stop  offset="0.16" style="stop-color:#573D2E"/>
			<stop  offset="0.29" style="stop-color:#614233"/>
			<stop  offset="0.41" style="stop-color:#724A3A"/>
			<stop  offset="0.51" style="stop-color:#895643"/>
			<stop  offset="0.53" style="stop-color:#8D5845"/>
			<stop  offset="0.62" style="stop-color:#875441"/>
			<stop  offset="0.75" style="stop-color:#764937"/>
			<stop  offset="0.89" style="stop-color:#593827"/>
			<stop  offset="1" style="stop-color:#402818"/>
		</linearGradient>
		<path id="Path_6022" style="fill:url(#Path_6022_00000142879530951973703260000005480907296028807600_);" d="M97.2,26.3
			c-1.6,0-3.3-0.3-4.7-1.1c-1.3-0.7-2.4-1.8-3.1-3.2c-0.8-1.5-1.1-3.2-1.1-4.8c0-1.7,0.3-3.3,1.1-4.8c0.7-1.3,1.8-2.4,3.2-3.1
			c2.8-1.5,6.2-1.5,9,0c1.3,0.7,2.4,1.8,3.1,3.1c0.8,1.5,1.2,3.2,1.2,4.8c0,1.7-0.3,3.3-1.1,4.9c-0.7,1.3-1.8,2.4-3.1,3.2
			C100.4,26,98.8,26.4,97.2,26.3z M97.2,25.6c0.7,0,1.4-0.2,2-0.7c0.6-0.7,1-1.6,1.1-2.5c0.3-1.7,0.4-3.4,0.3-5.1
			c0-1.7-0.1-3.4-0.3-5.2c-0.1-0.9-0.5-1.8-1.1-2.5c-0.5-0.5-1.3-0.7-2-0.7c-0.7,0-1.5,0.2-2,0.7c-0.6,0.7-1,1.6-1.1,2.5
			c-0.3,1.7-0.4,3.4-0.3,5.2c0,1.7,0.1,3.4,0.3,5.1c0.1,0.9,0.5,1.8,1.1,2.5C95.7,25.4,96.4,25.7,97.2,25.6z"/>
		
			<linearGradient id="Path_6023_00000129893806053862124220000016079430928039875465_" gradientUnits="userSpaceOnUse" x1="-446.218" y1="527.74" x2="-438.045" y2="528.166" gradientTransform="matrix(18.797 0 0 -17.7371 8380.8711 9383.7988)">
			<stop  offset="0" style="stop-color:#543B2D"/>
			<stop  offset="0.16" style="stop-color:#573D2E"/>
			<stop  offset="0.29" style="stop-color:#614233"/>
			<stop  offset="0.41" style="stop-color:#724A3A"/>
			<stop  offset="0.51" style="stop-color:#895643"/>
			<stop  offset="0.53" style="stop-color:#8D5845"/>
			<stop  offset="0.62" style="stop-color:#875441"/>
			<stop  offset="0.75" style="stop-color:#764937"/>
			<stop  offset="0.89" style="stop-color:#593827"/>
			<stop  offset="1" style="stop-color:#402818"/>
		</linearGradient>
		<path id="Path_6023" style="fill:url(#Path_6023_00000129893806053862124220000016079430928039875465_);" d="M111.7,26.2
			c-0.9,0-1.7-0.2-2.5-0.5c-0.8-0.4-1.4-1-1.8-1.7c-0.5-1-0.7-2.1-0.6-3.1l0.1-9.1c0-0.4-0.1-0.8-0.3-1.2c-0.2-0.3-0.5-0.4-0.9-0.5
			l-0.4-0.1V9.5l5.1-1c0.7-0.1,1.3,0.3,1.4,1c0,0.1,0,0.2,0,0.2l-0.1,12.5c-0.1,0.6,0.2,1.2,0.7,1.7c0.5,0.4,1.1,0.6,1.7,0.5
			c0.6,0,1.2-0.1,1.8-0.3c0.6-0.2,1.1-0.5,1.6-0.9l0.1-11.6c0-0.4-0.1-0.8-0.2-1.2c-0.2-0.3-0.6-0.4-0.9-0.5l-0.3-0.1V9.6l5-1.1
			c0.7-0.1,1.3,0.3,1.5,0.9c0,0.1,0,0.2,0,0.3l-0.1,13.6c0,0.4,0.1,0.8,0.2,1.2c0.2,0.3,0.5,0.6,0.9,0.7l0.4,0.1v0.4l-6.2,0.4
			l-0.3-2.1c-0.8,0.6-1.6,1.2-2.5,1.6C114,26,112.8,26.3,111.7,26.2z"/>
		
			<linearGradient id="Path_6024_00000085970075368241829120000002761788664874841528_" gradientUnits="userSpaceOnUse" x1="-447.2476" y1="537.0005" x2="-439.1096" y2="537.2935" gradientTransform="matrix(18.8822 0 0 -25.807 8438.5195 13886.4863)">
			<stop  offset="0" style="stop-color:#543B2D"/>
			<stop  offset="0.16" style="stop-color:#573D2E"/>
			<stop  offset="0.29" style="stop-color:#614233"/>
			<stop  offset="0.41" style="stop-color:#724A3A"/>
			<stop  offset="0.51" style="stop-color:#895643"/>
			<stop  offset="0.53" style="stop-color:#8D5845"/>
			<stop  offset="0.62" style="stop-color:#875441"/>
			<stop  offset="0.75" style="stop-color:#764937"/>
			<stop  offset="0.89" style="stop-color:#593827"/>
			<stop  offset="1" style="stop-color:#402818"/>
		</linearGradient>
		<path id="Path_6024" style="fill:url(#Path_6024_00000085970075368241829120000002761788664874841528_);" d="M141.9,33.5
			c-0.8-0.1-1.4-0.9-1.3-1.7V15.9l-0.2-2.1l-0.3-2.6c-0.1-0.4-0.2-0.7-0.4-1l0,0c-0.3-0.5-0.8-1-1.4-1.2c-0.2-0.1-0.5-0.2-0.8-0.2
			l-3.7-0.4l-1.1-0.1l-2.2-0.1c-1.2,0.1-2.5,0.4-3.5,1.1c-1.2,0.8-2.2,1.9-2.8,3.1c-0.7,1.6-1,3.3-1,5c0,2.9,0.7,5.1,2,6.6
			c1.2,1.5,3.1,2.3,5,2.3c1,0,2-0.1,3-0.5c0.8-0.3,1.6-0.7,2.4-1.3v7.1c0.1,0.8-0.5,1.6-1.4,1.8l-0.7,0.2V34h8.6v-0.4L141.9,33.5z
			 M135.5,16.9v6.9c-0.8,0.7-1.8,1.1-2.9,1.1c-1.2,0-2.3-0.7-2.9-1.7c-0.7-1.2-1.1-3.1-1.1-5.8c0-2.8,0.4-4.8,1.1-6
			c0.6-1.1,1.7-1.8,3-1.8c0.3,0,0.6,0,0.9,0.1c0.2,0,0.4,0.1,0.6,0.1c0.4,0.1,0.9,0.3,1.3,0.6v6.5L135.5,16.9
			C135.6,16.8,135.6,16.9,135.5,16.9z"/>
	</g>
</g>
<rect x="102" y="19.3" class="st13" width="5.7" height="1.9"/>
<g>
	<g>
		<linearGradient id="SVGID_1_" gradientUnits="userSpaceOnUse" x1="100.7383" y1="30.9717" x2="131.7969" y2="30.9717">
			<stop  offset="0" style="stop-color:#543B2D"/>
			<stop  offset="0.16" style="stop-color:#573D2E"/>
			<stop  offset="0.29" style="stop-color:#614233"/>
			<stop  offset="0.41" style="stop-color:#724A3A"/>
			<stop  offset="0.51" style="stop-color:#895643"/>
			<stop  offset="0.53" style="stop-color:#8D5845"/>
			<stop  offset="0.62" style="stop-color:#875441"/>
			<stop  offset="0.75" style="stop-color:#764937"/>
			<stop  offset="0.89" style="stop-color:#593827"/>
			<stop  offset="1" style="stop-color:#402818"/>
		</linearGradient>
		<path class="st14" d="M100.7,28.3c0.4,0,0.8,0,1.2,0c0.1,0,0.4,0,0.7,0c0.3,0,0.5,0,0.6,0c0.7,0,1.2,0.1,1.6,0.3
			c0.3,0.2,0.5,0.5,0.5,1c0,0.7-0.4,1.1-1.2,1.4c0.4,0.1,0.8,0.2,1,0.5s0.4,0.6,0.4,0.9c0,0.5-0.2,1-0.7,1.3
			c-0.4,0.3-1.1,0.4-1.9,0.4c-0.2,0-0.3,0-0.5,0c-0.2,0-0.4,0-0.6,0c-0.4,0-0.8,0-1.2,0l0-0.2l0.5-0.2c0.1,0,0.1-0.1,0.1-0.1
			c0-0.1,0-0.2,0-0.4c0-0.1,0-0.3,0-0.4v-3.2c0-0.1,0-0.3,0-0.4c0-0.1,0-0.2,0-0.3c0-0.1,0-0.1-0.1-0.1l-0.5-0.2L100.7,28.3z
			 M102.6,30.8c0.1,0,0.3,0,0.4,0c0.3,0,0.6-0.1,0.8-0.3s0.3-0.5,0.3-0.9c0-0.4-0.1-0.6-0.3-0.8c-0.2-0.2-0.4-0.2-0.7-0.2
			c-0.1,0-0.1,0-0.2,0s-0.1,0-0.2,0V30.8z M102.6,31.2v2.4c0.2,0,0.3,0,0.5,0c0.4,0,0.7-0.1,0.8-0.3c0.2-0.2,0.3-0.5,0.3-0.9
			c0-0.4-0.1-0.7-0.3-0.9c-0.2-0.2-0.5-0.3-1-0.3C102.9,31.2,102.7,31.2,102.6,31.2z"/>
		
			<linearGradient id="SVGID_00000130642277632047214730000001052368089276446347_" gradientUnits="userSpaceOnUse" x1="100.7383" y1="30.9717" x2="131.7969" y2="30.9717">
			<stop  offset="0" style="stop-color:#543B2D"/>
			<stop  offset="0.16" style="stop-color:#573D2E"/>
			<stop  offset="0.29" style="stop-color:#614233"/>
			<stop  offset="0.41" style="stop-color:#724A3A"/>
			<stop  offset="0.51" style="stop-color:#895643"/>
			<stop  offset="0.53" style="stop-color:#8D5845"/>
			<stop  offset="0.62" style="stop-color:#875441"/>
			<stop  offset="0.75" style="stop-color:#764937"/>
			<stop  offset="0.89" style="stop-color:#593827"/>
			<stop  offset="1" style="stop-color:#402818"/>
		</linearGradient>
		<path style="fill:url(#SVGID_00000130642277632047214730000001052368089276446347_);" d="M106.5,30.5c0.6-0.3,1.1-0.4,1.7-0.4
			c0.5,0,0.9,0.1,1.1,0.3s0.4,0.5,0.4,0.9l0,1.7c0,0.1,0,0.2,0,0.3c0,0.1,0,0.1,0.1,0.2c0,0,0.1,0.1,0.2,0.1s0.2,0,0.3,0l0,0.2
			c-0.4,0.1-0.7,0.2-1,0.2c-0.4,0-0.6-0.1-0.7-0.4c-0.3,0.3-0.7,0.4-1.1,0.4c-0.4,0-0.7-0.1-0.9-0.3c-0.2-0.2-0.4-0.5-0.4-0.8
			c0-0.4,0.2-0.7,0.6-0.9s1-0.3,1.8-0.3l0-0.3c0-0.3-0.1-0.5-0.2-0.6c-0.1-0.1-0.4-0.2-0.7-0.2c-0.3,0-0.6,0.1-1,0.2L106.5,30.5z
			 M108.5,32.2c-0.4,0-0.7,0.1-0.9,0.2c-0.2,0.1-0.3,0.3-0.3,0.6c0,0.2,0.1,0.4,0.2,0.5s0.3,0.2,0.5,0.2c0.2,0,0.4-0.1,0.5-0.2
			L108.5,32.2z"/>
		
			<linearGradient id="SVGID_00000149351792139859072290000005854591445231525800_" gradientUnits="userSpaceOnUse" x1="100.7383" y1="30.9717" x2="131.7969" y2="30.9717">
			<stop  offset="0" style="stop-color:#543B2D"/>
			<stop  offset="0.16" style="stop-color:#573D2E"/>
			<stop  offset="0.29" style="stop-color:#614233"/>
			<stop  offset="0.41" style="stop-color:#724A3A"/>
			<stop  offset="0.51" style="stop-color:#895643"/>
			<stop  offset="0.53" style="stop-color:#8D5845"/>
			<stop  offset="0.62" style="stop-color:#875441"/>
			<stop  offset="0.75" style="stop-color:#764937"/>
			<stop  offset="0.89" style="stop-color:#593827"/>
			<stop  offset="1" style="stop-color:#402818"/>
		</linearGradient>
		<path style="fill:url(#SVGID_00000149351792139859072290000005854591445231525800_);" d="M113.7,30.1c0.4,0,0.7,0.1,0.9,0.3
			s0.3,0.5,0.3,0.9v1.4c0,0.3,0,0.6,0,0.8c0,0.1,0,0.1,0.1,0.1l0.5,0.1l0,0.2c-0.4,0-0.8,0-1.2,0c-0.4,0-0.8,0-1.1,0l0-0.2l0.4-0.1
			c0.1,0,0.1-0.1,0.1-0.1c0,0,0-0.1,0-0.3v-1.7c0-0.3-0.1-0.6-0.2-0.7c-0.1-0.1-0.3-0.2-0.6-0.2c-0.2,0-0.5,0.1-0.7,0.2v1.8
			c0,0.3,0,0.7,0,0.9c0,0.1,0,0.1,0.1,0.1l0.4,0.1l0,0.2c-0.3,0-0.7,0-1.1,0c-0.4,0-0.8,0-1.2,0l0-0.2l0.5-0.1
			c0.1,0,0.1-0.1,0.1-0.1c0-0.2,0-0.3,0-0.5v-3.6c0-0.4,0-0.7,0-1l-0.6-0.2l0-0.2c0.7-0.1,1.3-0.2,1.8-0.3l0,0c0,0.4,0,0.8,0,1.2
			v1.4C112.8,30.2,113.2,30.1,113.7,30.1z"/>
		
			<linearGradient id="SVGID_00000094596766122697050700000014209417369009585568_" gradientUnits="userSpaceOnUse" x1="100.7383" y1="30.9717" x2="131.7969" y2="30.9717">
			<stop  offset="0" style="stop-color:#543B2D"/>
			<stop  offset="0.16" style="stop-color:#573D2E"/>
			<stop  offset="0.29" style="stop-color:#614233"/>
			<stop  offset="0.41" style="stop-color:#724A3A"/>
			<stop  offset="0.51" style="stop-color:#895643"/>
			<stop  offset="0.53" style="stop-color:#8D5845"/>
			<stop  offset="0.62" style="stop-color:#875441"/>
			<stop  offset="0.75" style="stop-color:#764937"/>
			<stop  offset="0.89" style="stop-color:#593827"/>
			<stop  offset="1" style="stop-color:#402818"/>
		</linearGradient>
		<path style="fill:url(#SVGID_00000094596766122697050700000014209417369009585568_);" d="M115.9,30.4c0.6-0.1,1.2-0.2,1.7-0.3
			l0.1,0v0.4c0.5-0.3,1-0.5,1.5-0.5l0,0c-0.1,0.4-0.2,0.9-0.2,1.4l-0.2,0c-0.1-0.3-0.1-0.5-0.2-0.6c-0.1-0.1-0.2-0.2-0.3-0.2
			c-0.1,0-0.3,0-0.5,0.1v1.7c0,0.4,0,0.7,0,0.9c0,0.1,0,0.1,0.1,0.1l0.6,0.2l0,0.2c-0.5,0-0.9,0-1.3,0c-0.4,0-0.8,0-1.2,0l0-0.2
			l0.5-0.1c0.1,0,0.1-0.1,0.1-0.1c0-0.1,0-0.3,0-0.5v-1.4c0-0.4,0-0.8,0-1l-0.6-0.2L115.9,30.4z"/>
		
			<linearGradient id="SVGID_00000005974667485636942910000004942236261729050496_" gradientUnits="userSpaceOnUse" x1="100.7383" y1="30.9717" x2="131.7969" y2="30.9717">
			<stop  offset="0" style="stop-color:#543B2D"/>
			<stop  offset="0.16" style="stop-color:#573D2E"/>
			<stop  offset="0.29" style="stop-color:#614233"/>
			<stop  offset="0.41" style="stop-color:#724A3A"/>
			<stop  offset="0.51" style="stop-color:#895643"/>
			<stop  offset="0.53" style="stop-color:#8D5845"/>
			<stop  offset="0.62" style="stop-color:#875441"/>
			<stop  offset="0.75" style="stop-color:#764937"/>
			<stop  offset="0.89" style="stop-color:#593827"/>
			<stop  offset="1" style="stop-color:#402818"/>
		</linearGradient>
		<path style="fill:url(#SVGID_00000005974667485636942910000004942236261729050496_);" d="M119.9,30.5c0.6-0.3,1.1-0.4,1.7-0.4
			c0.5,0,0.9,0.1,1.1,0.3s0.4,0.5,0.4,0.9l0,1.7c0,0.1,0,0.2,0,0.3c0,0.1,0,0.1,0.1,0.2c0,0,0.1,0.1,0.2,0.1s0.2,0,0.3,0l0,0.2
			c-0.4,0.1-0.7,0.2-1,0.2c-0.4,0-0.6-0.1-0.7-0.4c-0.3,0.3-0.7,0.4-1.1,0.4c-0.4,0-0.7-0.1-0.9-0.3c-0.2-0.2-0.4-0.5-0.4-0.8
			c0-0.4,0.2-0.7,0.6-0.9s1-0.3,1.8-0.3l0-0.3c0-0.3-0.1-0.5-0.2-0.6c-0.1-0.1-0.4-0.2-0.7-0.2c-0.3,0-0.6,0.1-1,0.2L119.9,30.5z
			 M121.9,32.2c-0.4,0-0.7,0.1-0.9,0.2c-0.2,0.1-0.3,0.3-0.3,0.6c0,0.2,0.1,0.4,0.2,0.5s0.3,0.2,0.5,0.2c0.2,0,0.4-0.1,0.5-0.2
			L121.9,32.2z"/>
		
			<linearGradient id="SVGID_00000149361705507615815200000007826594466548036249_" gradientUnits="userSpaceOnUse" x1="100.7383" y1="30.9717" x2="131.7969" y2="30.9717">
			<stop  offset="0" style="stop-color:#543B2D"/>
			<stop  offset="0.16" style="stop-color:#573D2E"/>
			<stop  offset="0.29" style="stop-color:#614233"/>
			<stop  offset="0.41" style="stop-color:#724A3A"/>
			<stop  offset="0.51" style="stop-color:#895643"/>
			<stop  offset="0.53" style="stop-color:#8D5845"/>
			<stop  offset="0.62" style="stop-color:#875441"/>
			<stop  offset="0.75" style="stop-color:#764937"/>
			<stop  offset="0.89" style="stop-color:#593827"/>
			<stop  offset="1" style="stop-color:#402818"/>
		</linearGradient>
		<path style="fill:url(#SVGID_00000149361705507615815200000007826594466548036249_);" d="M124,30.4c0.7-0.1,1.3-0.2,1.8-0.3l0,0
			c0,0.4,0,0.8,0,1.2v1.5c0,0.3,0,0.5,0,0.7c0,0.1,0,0.1,0.1,0.1l0.5,0.1l0,0.2c-0.4,0-0.8,0-1.2,0c-0.4,0-0.8,0-1.2,0l0-0.2
			l0.5-0.1c0.1,0,0.1-0.1,0.1-0.1c0-0.1,0-0.3,0-0.5v-1.3c0-0.4,0-0.7,0-1l-0.6-0.2L124,30.4z M125.8,28.7c0,0.2-0.1,0.3-0.2,0.5
			s-0.3,0.2-0.5,0.2c-0.2,0-0.3-0.1-0.4-0.2c-0.1-0.1-0.2-0.3-0.2-0.4c0-0.2,0.1-0.3,0.2-0.5c0.1-0.1,0.3-0.2,0.5-0.2
			c0.2,0,0.3,0.1,0.4,0.2C125.7,28.4,125.8,28.5,125.8,28.7z"/>
		
			<linearGradient id="SVGID_00000026161212677572567980000015106202840967861929_" gradientUnits="userSpaceOnUse" x1="100.7383" y1="30.9717" x2="131.7969" y2="30.9717">
			<stop  offset="0" style="stop-color:#543B2D"/>
			<stop  offset="0.16" style="stop-color:#573D2E"/>
			<stop  offset="0.29" style="stop-color:#614233"/>
			<stop  offset="0.41" style="stop-color:#724A3A"/>
			<stop  offset="0.51" style="stop-color:#895643"/>
			<stop  offset="0.53" style="stop-color:#8D5845"/>
			<stop  offset="0.62" style="stop-color:#875441"/>
			<stop  offset="0.75" style="stop-color:#764937"/>
			<stop  offset="0.89" style="stop-color:#593827"/>
			<stop  offset="1" style="stop-color:#402818"/>
		</linearGradient>
		<path style="fill:url(#SVGID_00000026161212677572567980000015106202840967861929_);" d="M126.8,30.4c0.6-0.1,1.2-0.2,1.7-0.3
			l0.1,0v0.4c0.5-0.3,0.9-0.5,1.4-0.5c0.4,0,0.7,0.1,0.9,0.3s0.3,0.5,0.3,0.9v1.4c0,0.3,0,0.6,0,0.8c0,0.1,0,0.1,0.1,0.1l0.5,0.1
			l0,0.2c-0.4,0-0.8,0-1.2,0c-0.4,0-0.8,0-1.1,0l0-0.2l0.4-0.1c0.1,0,0.1-0.1,0.1-0.1c0,0,0-0.1,0-0.3v-1.7c0-0.3-0.1-0.6-0.2-0.7
			c-0.1-0.1-0.3-0.2-0.6-0.2c-0.2,0-0.5,0.1-0.7,0.2v1.8c0,0.3,0,0.7,0,0.9c0,0.1,0,0.1,0.1,0.1l0.4,0.1l0,0.2c-0.3,0-0.7,0-1.1,0
			c-0.4,0-0.8,0-1.2,0l0-0.2l0.5-0.1c0.1,0,0.1-0.1,0.1-0.1c0-0.2,0-0.3,0-0.5v-1.3c0-0.4,0-0.7,0-1l-0.6-0.2L126.8,30.4z"/>
	</g>
</g>
</svg>
