<?xml version="1.0" encoding="UTF-8"?>
<svg xmlns="http://www.w3.org/2000/svg" xmlns:xlink="http://www.w3.org/1999/xlink" viewBox="0 0 50 50" width="50px" height="50px">
<g id="surface17497704">
<path style=" stroke:none;fill-rule:nonzero;fill:rgb(38.82353%,22.352941%,17.254902%);fill-opacity:1;" d="M 13.339844 4.128906 L 20.261719 16 L 4 16 L 4 15 C 4 9.480469 8.050781 4.921875 13.339844 4.128906 Z M 33.261719 16 L 22.570312 16 L 15.570312 4 L 26.261719 4 Z M 46 15 L 46 16 L 35.570312 16 L 28.570312 4 L 35 4 C 41.078125 4 46 8.921875 46 15 Z M 4 18 L 4 35 C 4 41.078125 8.921875 46 15 46 L 35 46 C 41.078125 46 46 41.078125 46 35 L 46 18 Z M 31 32.191406 L 23.011719 36.730469 C 21.679688 37.488281 20 36.550781 20 35.039062 L 20 25.960938 C 20 24.449219 21.679688 23.511719 23.011719 24.269531 L 31 28.808594 C 32.328125 29.558594 32.328125 31.441406 31 32.191406 Z M 31 32.191406 "/>
</g>
</svg>
