<svg xmlns="http://www.w3.org/2000/svg" width="16.682" height="18.007" viewBox="0 0 16.682 18.007">
  <g id="Group_16448" data-name="Group 16448" transform="translate(-1.46 -0.599)">
    <path id="Path_5940" data-name="Path 5940" d="M231.093,60.106a4.853,4.853,0,1,1,4.853-4.853A4.855,4.855,0,0,1,231.093,60.106Z" transform="translate(-221.293 -49.801)" fill="#63392c"/>
    <path id="Path_5941" data-name="Path 5941" d="M145.648,298.02a9.533,9.533,0,0,1-5.754-1.91,12.366,12.366,0,0,1-.988-.835,7.688,7.688,0,0,1-.966-1.1,8.293,8.293,0,0,1-.571-.856.422.422,0,0,1-.022-.4,7.1,7.1,0,0,1,.483-.9A6.1,6.1,0,0,1,142,289.39a.868.868,0,0,1,.615.154,5.029,5.029,0,0,0,3.03,1.01,5.155,5.155,0,0,0,3.031-.988.868.868,0,0,1,.615-.154,6.028,6.028,0,0,1,4.173,2.635,5.1,5.1,0,0,1,.483.9.418.418,0,0,1-.022.4c-.176.286-.373.593-.571.857a7.69,7.69,0,0,1-.966,1.1,9.024,9.024,0,0,1-.988.835,9.656,9.656,0,0,1-5.754,1.889Z" transform="translate(-135.848 -279.414)" fill="#63392c"/>
  </g>
</svg>
